<svg xmlns="http://www.w3.org/2000/svg" viewBox="0 0 700 380" width="700" height="380" font-family="ui-monospace,SFMono-Regular,Menlo,monospace" font-size="12">
  <defs>
    <marker id="arr" markerWidth="8" markerHeight="8" refX="6" refY="3" orient="auto">
      <path d="M0,0 L0,6 L8,3 z" fill="#555"/>
    </marker>
    <marker id="arr-green" markerWidth="8" markerHeight="8" refX="6" refY="3" orient="auto">
      <path d="M0,0 L0,6 L8,3 z" fill="#27ae60"/>
    </marker>
  </defs>

  <rect width="700" height="380" fill="#f8f9fa" rx="8"/>

  <!-- Coordinator -->
  <rect x="250" y="20" width="200" height="36" rx="6" fill="#dae8fc" stroke="#6c8ebf" stroke-width="1.5"/>
  <text x="350" y="35" text-anchor="middle" fill="#1a3a5c" font-size="11" font-weight="bold">Coordinator</text>
  <text x="350" y="49" text-anchor="middle" fill="#1a3a5c" font-size="10">intake asset, load shared context</text>

  <!-- Perception pre-pass -->
  <rect x="510" y="20" width="170" height="36" rx="6" fill="#d5e8d4" stroke="#82b366" stroke-width="1.5"/>
  <text x="595" y="35" text-anchor="middle" fill="#1a3a1a" font-size="11" font-weight="bold">Perception pre-pass</text>
  <text x="595" y="49" text-anchor="middle" fill="#1a3a1a" font-size="10">keyframes + transcript (AIML)</text>
  <line x1="450" y1="38" x2="510" y2="38" stroke="#82b366" stroke-width="1.5" stroke-dasharray="4,2" marker-end="url(#arr-green)"/>

  <!-- Coordinator -> reviewers -->
  <line x1="270" y1="56" x2="90" y2="108" stroke="#555" stroke-width="1.5" marker-end="url(#arr)"/>
  <line x1="310" y1="56" x2="230" y2="108" stroke="#555" stroke-width="1.5" marker-end="url(#arr)"/>
  <line x1="390" y1="56" x2="390" y2="108" stroke="#555" stroke-width="1.5" marker-end="url(#arr)"/>
  <line x1="430" y1="56" x2="550" y2="108" stroke="#555" stroke-width="1.5" marker-end="url(#arr)"/>

  <!-- Reviewers -->
  <rect x="20" y="110" width="120" height="40" rx="6" fill="#d5e8d4" stroke="#82b366" stroke-width="1.5"/>
  <text x="80" y="126" text-anchor="middle" fill="#1a3a1a" font-size="11" font-weight="bold">US Reviewer</text>
  <text x="80" y="142" text-anchor="middle" fill="#1a3a1a" font-size="9">FTC rules</text>

  <rect x="160" y="110" width="120" height="40" rx="6" fill="#d5e8d4" stroke="#82b366" stroke-width="1.5"/>
  <text x="220" y="126" text-anchor="middle" fill="#1a3a1a" font-size="11" font-weight="bold">EU Reviewer</text>
  <text x="220" y="142" text-anchor="middle" fill="#1a3a1a" font-size="9">GDPR / health claims</text>

  <rect x="300" y="110" width="140" height="40" rx="6" fill="#d5e8d4" stroke="#82b366" stroke-width="1.5"/>
  <text x="370" y="126" text-anchor="middle" fill="#1a3a1a" font-size="11" font-weight="bold">LATAM Reviewer</text>
  <text x="370" y="142" text-anchor="middle" fill="#1a3a1a" font-size="9">regional rules</text>

  <rect x="460" y="110" width="130" height="40" rx="6" fill="#d5e8d4" stroke="#82b366" stroke-width="1.5"/>
  <text x="525" y="126" text-anchor="middle" fill="#1a3a1a" font-size="11" font-weight="bold">Brand Reviewer</text>
  <text x="525" y="142" text-anchor="middle" fill="#1a3a1a" font-size="9">voice + channel</text>

  <text x="350" y="170" text-anchor="middle" fill="#888" font-size="9" font-style="italic">all reviewers run in parallel</text>

  <!-- Reviewers -> Reconcile -->
  <line x1="80" y1="150" x2="280" y2="208" stroke="#555" stroke-width="1.5" marker-end="url(#arr)"/>
  <line x1="220" y1="150" x2="315" y2="208" stroke="#555" stroke-width="1.5" marker-end="url(#arr)"/>
  <line x1="370" y1="150" x2="385" y2="208" stroke="#555" stroke-width="1.5" marker-end="url(#arr)"/>
  <line x1="525" y1="150" x2="455" y2="208" stroke="#555" stroke-width="1.5" marker-end="url(#arr)"/>

  <!-- Reconcile -->
  <rect x="220" y="210" width="260" height="36" rx="6" fill="#dae8fc" stroke="#6c8ebf" stroke-width="1.5"/>
  <text x="350" y="225" text-anchor="middle" fill="#1a3a5c" font-size="11" font-weight="bold">Reconcile</text>
  <text x="350" y="241" text-anchor="middle" fill="#1a3a5c" font-size="10">detect conflicts, emit per-region verdicts</text>

  <!-- Reconcile -> outcomes -->
  <line x1="280" y1="246" x2="160" y2="290" stroke="#555" stroke-width="1.5" marker-end="url(#arr)"/>
  <line x1="350" y1="246" x2="350" y2="290" stroke="#555" stroke-width="1.5" marker-end="url(#arr)"/>
  <line x1="420" y1="246" x2="540" y2="290" stroke="#555" stroke-width="1.5" marker-end="url(#arr)"/>

  <!-- Outcomes -->
  <rect x="60" y="292" width="170" height="36" rx="6" fill="#d5e8d4" stroke="#27ae60" stroke-width="1.5"/>
  <text x="145" y="307" text-anchor="middle" fill="#1a5c2a" font-size="11" font-weight="bold">Approved</text>
  <text x="145" y="323" text-anchor="middle" fill="#1a5c2a" font-size="9">per-region verdict: pass</text>

  <rect x="250" y="292" width="200" height="36" rx="6" fill="#d5e8d4" stroke="#82b366" stroke-width="1.5"/>
  <text x="350" y="307" text-anchor="middle" fill="#1a3a1a" font-size="11" font-weight="bold">Remediation (model)</text>
  <text x="350" y="323" text-anchor="middle" fill="#1a3a1a" font-size="9">rewrite + regen image, re-review</text>

  <rect x="470" y="292" width="170" height="36" rx="6" fill="#ffe0e0" stroke="#c0392b" stroke-width="1.5"/>
  <text x="555" y="307" text-anchor="middle" fill="#7a0000" font-size="11" font-weight="bold">Escalate</text>
  <text x="555" y="323" text-anchor="middle" fill="#7a0000" font-size="9">human ruling logged</text>

  <!-- Remediation loop -->
  <path d="M 350,328 Q 620,340 620,140 Q 620,56 450,56" fill="none" stroke="#82b366" stroke-width="1.5" stroke-dasharray="5,3" marker-end="url(#arr-green)"/>
  <text x="638" y="200" fill="#27ae60" font-size="9">re-review</text>

  <text x="690" y="372" text-anchor="end" fill="#aaa" font-size="9">Band Review Board - classic cast</text>
</svg>
